<mxfile host="www.draw.io" modified="2020-02-22T18:03:20.415Z" agent="Mozilla/5.0 (Windows NT 10.0; Win64; x64) AppleWebKit/537.36 (KHTML, like Gecko) Chrome/80.0.3987.116 Safari/537.36" etag="dGNMHsXsl5CtPZp0_C7Q" version="12.7.4" type="github">
  <diagram id="h3lL8BzCqWzd9hAtiHfo" name="Page-1">
    <mxGraphModel dx="1182" dy="742" grid="1" gridSize="10" guides="1" tooltips="1" connect="1" arrows="1" fold="1" page="1" pageScale="1" pageWidth="850" pageHeight="1100" math="0" shadow="0">
      <root>
        <mxCell id="0" />
        <mxCell id="1" parent="0" />
        <mxCell id="7lizP91CUxGbtv5EKYjH-3" value="" style="edgeStyle=orthogonalEdgeStyle;rounded=0;orthogonalLoop=1;jettySize=auto;html=1;" edge="1" parent="1" source="7lizP91CUxGbtv5EKYjH-1" target="7lizP91CUxGbtv5EKYjH-2">
          <mxGeometry relative="1" as="geometry" />
        </mxCell>
        <mxCell id="7lizP91CUxGbtv5EKYjH-1" value="" style="rounded=0;whiteSpace=wrap;html=1;" vertex="1" parent="1">
          <mxGeometry x="320" y="140" width="120" height="60" as="geometry" />
        </mxCell>
        <mxCell id="7lizP91CUxGbtv5EKYjH-5" value="" style="edgeStyle=orthogonalEdgeStyle;rounded=0;orthogonalLoop=1;jettySize=auto;html=1;" edge="1" parent="1" source="7lizP91CUxGbtv5EKYjH-2" target="7lizP91CUxGbtv5EKYjH-4">
          <mxGeometry relative="1" as="geometry" />
        </mxCell>
        <mxCell id="7lizP91CUxGbtv5EKYjH-7" value="" style="edgeStyle=orthogonalEdgeStyle;rounded=0;orthogonalLoop=1;jettySize=auto;html=1;" edge="1" parent="1" source="7lizP91CUxGbtv5EKYjH-2" target="7lizP91CUxGbtv5EKYjH-6">
          <mxGeometry relative="1" as="geometry" />
        </mxCell>
        <mxCell id="7lizP91CUxGbtv5EKYjH-2" value="" style="rounded=1;whiteSpace=wrap;html=1;" vertex="1" parent="1">
          <mxGeometry x="320" y="260" width="120" height="60" as="geometry" />
        </mxCell>
        <mxCell id="7lizP91CUxGbtv5EKYjH-4" value="" style="ellipse;whiteSpace=wrap;html=1;aspect=fixed;" vertex="1" parent="1">
          <mxGeometry x="340" y="370" width="80" height="80" as="geometry" />
        </mxCell>
        <mxCell id="7lizP91CUxGbtv5EKYjH-9" value="" style="edgeStyle=orthogonalEdgeStyle;rounded=0;orthogonalLoop=1;jettySize=auto;html=1;" edge="1" parent="1" source="7lizP91CUxGbtv5EKYjH-6" target="7lizP91CUxGbtv5EKYjH-8">
          <mxGeometry relative="1" as="geometry" />
        </mxCell>
        <mxCell id="7lizP91CUxGbtv5EKYjH-6" value="" style="rhombus;whiteSpace=wrap;html=1;" vertex="1" parent="1">
          <mxGeometry x="520" y="250" width="80" height="80" as="geometry" />
        </mxCell>
        <mxCell id="7lizP91CUxGbtv5EKYjH-8" value="" style="rounded=1;whiteSpace=wrap;html=1;" vertex="1" parent="1">
          <mxGeometry x="500" y="380" width="120" height="60" as="geometry" />
        </mxCell>
      </root>
    </mxGraphModel>
  </diagram>
</mxfile>
